<svg width="2243" height="466" viewBox="0 0 2243 466" fill="none" xmlns="http://www.w3.org/2000/svg">
<path d="M9.49949e-08 113H73.5L114 266.5H117.5L166 113H233.5L282.5 266.5H286L326 113H398.5L320 358H249.5L200.5 203.5H197L148 358H78.5L9.49949e-08 113ZM574.461 332H570.461C562.794 341.333 553.461 349.333 542.461 356C531.794 362.667 517.961 366 500.961 366C488.294 366 476.294 363.833 464.961 359.5C453.961 355.5 444.294 349.833 435.961 342.5C427.628 335.167 421.128 326.333 416.461 316C411.794 305.667 409.461 294.333 409.461 282C409.461 269.333 411.961 258 416.961 248C421.961 237.667 428.961 228.833 437.961 221.5C446.961 214.167 457.461 208.667 469.461 205C481.794 201 495.128 199 509.461 199C525.461 199 538.628 200.333 548.961 203C559.294 205.333 567.794 207.833 574.461 210.5V203C574.461 190 569.294 179.333 558.961 171C548.628 162.333 535.794 158 520.461 158C497.794 158 478.628 167.5 462.961 186.5L415.461 154C441.461 121.333 476.961 105 521.961 105C559.961 105 588.961 114 608.961 132C628.961 149.667 638.961 176 638.961 211V358H574.461V332ZM574.461 258.5C566.794 254.833 558.794 252 550.461 250C542.461 247.667 533.628 246.5 523.961 246.5C508.294 246.5 496.128 250 487.461 257C479.128 263.667 474.961 272 474.961 282C474.961 292 478.961 300 486.961 306C495.294 312 504.794 315 515.461 315C524.128 315 532.128 313.5 539.461 310.5C546.794 307.167 552.961 303 557.961 298C563.294 292.667 567.294 286.667 569.961 280C572.961 273 574.461 265.833 574.461 258.5ZM691.039 358V-1.0252e-05H756.539V358H691.039ZM812.621 358V-1.0252e-05H878.121V358H812.621ZM1163.76 299C1152.43 319 1137.1 335.167 1117.76 347.5C1098.76 359.833 1075.43 366 1047.76 366C1029.1 366 1011.76 362.833 995.762 356.5C980.095 349.833 966.428 340.667 954.762 329C943.095 317.333 933.928 303.667 927.262 288C920.928 272 917.762 254.5 917.762 235.5C917.762 217.833 920.928 201.167 927.262 185.5C933.595 169.5 942.428 155.667 953.762 144C965.095 132 978.428 122.5 993.762 115.5C1009.43 108.5 1026.6 105 1045.26 105C1064.93 105 1082.43 108.333 1097.76 115C1113.1 121.333 1125.93 130.333 1136.26 142C1146.6 153.333 1154.43 166.833 1159.76 182.5C1165.1 198.167 1167.76 215.167 1167.76 233.5C1167.76 235.833 1167.76 237.833 1167.76 239.5C1167.43 241.5 1167.26 243.333 1167.26 245C1166.93 246.667 1166.76 248.5 1166.76 250.5H982.262C983.595 260.5 986.262 269.167 990.262 276.5C994.595 283.5 999.762 289.5 1005.76 294.5C1012.1 299.167 1018.93 302.667 1026.26 305C1033.6 307 1041.1 308 1048.76 308C1063.76 308 1076.1 304.667 1085.76 298C1095.76 291 1103.6 282.333 1109.26 272L1163.76 299ZM1104.26 204C1103.93 199.667 1102.43 194.833 1099.76 189.5C1097.43 184.167 1093.76 179.167 1088.76 174.5C1084.1 169.833 1078.1 166 1070.76 163C1063.76 160 1055.26 158.5 1045.26 158.5C1031.26 158.5 1018.93 162.5 1008.26 170.5C997.595 178.5 990.095 189.667 985.762 204H1104.26ZM1229.27 169H1186.27V113H1229.27V38H1294.77V113H1354.77V169H1294.77V264C1294.77 269.667 1295.27 275 1296.27 280C1297.6 284.667 1299.94 288.667 1303.27 292C1307.94 297.333 1314.6 300 1323.27 300C1328.94 300 1333.44 299.5 1336.77 298.5C1340.1 297.167 1343.27 295.5 1346.27 293.5L1364.77 351C1357.1 354.667 1348.77 357.333 1339.77 359C1331.1 361 1321.44 362 1310.77 362C1298.44 362 1287.27 360.167 1277.27 356.5C1267.6 352.5 1259.44 347.167 1252.77 340.5C1237.1 325.5 1229.27 304.167 1229.27 276.5V169Z" fill="#A0A0A0"/>
<path d="M1410.95 -1.0252e-05H1550.95C1566.29 -1.0252e-05 1580.62 2.49999 1593.95 7.49998C1607.29 12.1666 1618.79 18.8333 1628.45 27.5C1638.45 35.8333 1646.29 45.6666 1651.95 57C1657.62 68.3333 1660.45 80.5 1660.45 93.5C1660.45 112.5 1655.79 128.5 1646.45 141.5C1637.45 154.167 1626.12 163.833 1612.45 170.5V174.5C1630.79 181.167 1645.45 191.667 1656.45 206C1667.79 220 1673.45 237.5 1673.45 258.5C1673.45 273.833 1670.29 287.667 1663.95 300C1657.95 312 1649.62 322.333 1638.95 331C1628.29 339.667 1615.79 346.333 1601.45 351C1587.45 355.667 1572.29 358 1555.95 358H1410.95V-1.0252e-05ZM1545.95 146C1561.62 146 1573.62 141.833 1581.95 133.5C1590.62 124.833 1594.95 114.667 1594.95 103C1594.95 91.3333 1590.79 81.3333 1582.45 73C1574.12 64.6666 1562.62 60.5 1547.95 60.5H1478.45V146H1545.95ZM1553.45 296C1570.45 296 1583.45 291.833 1592.45 283.5C1601.45 274.833 1605.95 263.833 1605.95 250.5C1605.95 237.167 1601.29 226.167 1591.95 217.5C1582.95 208.5 1569.45 204 1551.45 204H1478.45V296H1553.45ZM1833.41 105C1852.41 105 1869.74 108.333 1885.41 115C1901.41 121.333 1915.07 130.333 1926.41 142C1938.07 153.333 1947.07 167 1953.41 183C1960.07 199 1963.41 216.5 1963.41 235.5C1963.41 254.5 1960.07 272 1953.41 288C1947.07 304 1938.07 317.833 1926.41 329.5C1915.07 340.833 1901.41 349.833 1885.41 356.5C1869.74 362.833 1852.41 366 1833.41 366C1814.41 366 1796.91 362.833 1780.91 356.5C1765.24 349.833 1751.57 340.833 1739.91 329.5C1728.57 317.833 1719.57 304 1712.91 288C1706.57 272 1703.41 254.5 1703.41 235.5C1703.41 216.5 1706.57 199 1712.91 183C1719.57 167 1728.57 153.333 1739.91 142C1751.57 130.333 1765.24 121.333 1780.91 115C1796.91 108.333 1814.41 105 1833.41 105ZM1833.41 305.5C1841.74 305.5 1849.74 304 1857.41 301C1865.41 297.667 1872.41 293 1878.41 287C1884.41 281 1889.07 273.667 1892.41 265C1896.07 256.333 1897.91 246.5 1897.91 235.5C1897.91 224.5 1896.07 214.667 1892.41 206C1889.07 197.333 1884.41 190 1878.41 184C1872.41 178 1865.41 173.5 1857.41 170.5C1849.74 167.167 1841.74 165.5 1833.41 165.5C1824.74 165.5 1816.57 167.167 1808.91 170.5C1801.24 173.5 1794.41 178 1788.41 184C1782.41 190 1777.57 197.333 1773.91 206C1770.57 214.667 1768.91 224.5 1768.91 235.5C1768.91 246.5 1770.57 256.333 1773.91 265C1777.57 273.667 1782.41 281 1788.41 287C1794.41 293 1801.24 297.667 1808.91 301C1816.57 304 1824.74 305.5 1833.41 305.5ZM2072.73 346L1969.73 113H2044.23L2106.23 261.5H2109.73L2169.23 113H2242.23L2088.73 466H2018.23L2072.73 346Z" fill="#1ACC36"/>
</svg>
