<svg width="135" height="75" viewBox="0 0 404 85" fill="none" xmlns="http://www.w3.org/2000/svg">
<path d="M0.36 20.9H13.59L20.88 48.53H21.51L30.24 20.9H42.39L51.21 48.53H51.84L59.04 20.9H72.09L57.96 65H45.27L36.45 37.19H35.82L27 65H14.49L0.36 20.9ZM103.763 60.32H103.043C101.663 62 99.983 63.44 98.003 64.64C96.083 65.84 93.593 66.44 90.533 66.44C88.253 66.44 86.093 66.05 84.053 65.27C82.073 64.55 80.333 63.53 78.833 62.21C77.333 60.89 76.163 59.3 75.323 57.44C74.483 55.58 74.063 53.54 74.063 51.32C74.063 49.04 74.513 47 75.413 45.2C76.313 43.34 77.573 41.75 79.193 40.43C80.813 39.11 82.703 38.12 84.863 37.46C87.083 36.74 89.483 36.38 92.063 36.38C94.943 36.38 97.313 36.62 99.173 37.1C101.033 37.52 102.563 37.97 103.763 38.45V37.1C103.763 34.76 102.833 32.84 100.973 31.34C99.113 29.78 96.803 29 94.043 29C89.963 29 86.513 30.71 83.693 34.13L75.143 28.28C79.823 22.4 86.213 19.46 94.313 19.46C101.153 19.46 106.373 21.08 109.973 24.32C113.573 27.5 115.373 32.24 115.373 38.54V65H103.763V60.32ZM103.763 47.09C102.383 46.43 100.943 45.92 99.443 45.56C98.003 45.14 96.413 44.93 94.673 44.93C91.853 44.93 89.663 45.56 88.103 46.82C86.603 48.02 85.853 49.52 85.853 51.32C85.853 53.12 86.573 54.56 88.013 55.64C89.513 56.72 91.223 57.26 93.143 57.26C94.703 57.26 96.143 56.99 97.463 56.45C98.783 55.85 99.893 55.1 100.793 54.2C101.753 53.24 102.473 52.16 102.953 50.96C103.493 49.7 103.763 48.41 103.763 47.09ZM124.747 65V0.559998H136.537V65H124.747ZM146.632 65V0.559998H158.422V65H146.632ZM209.837 54.38C207.797 57.98 205.037 60.89 201.557 63.11C198.137 65.33 193.937 66.44 188.957 66.44C185.597 66.44 182.477 65.87 179.597 64.73C176.777 63.53 174.317 61.88 172.217 59.78C170.117 57.68 168.467 55.22 167.267 52.4C166.127 49.52 165.557 46.37 165.557 42.95C165.557 39.77 166.127 36.77 167.267 33.95C168.407 31.07 169.997 28.58 172.037 26.48C174.077 24.32 176.477 22.61 179.237 21.35C182.057 20.09 185.147 19.46 188.507 19.46C192.047 19.46 195.197 20.06 197.957 21.26C200.717 22.4 203.027 24.02 204.887 26.12C206.747 28.16 208.157 30.59 209.117 33.41C210.077 36.23 210.557 39.29 210.557 42.59C210.557 43.01 210.557 43.37 210.557 43.67C210.497 44.03 210.467 44.36 210.467 44.66C210.407 44.96 210.377 45.29 210.377 45.65H177.167C177.407 47.45 177.887 49.01 178.607 50.33C179.387 51.59 180.317 52.67 181.397 53.57C182.537 54.41 183.767 55.04 185.087 55.46C186.407 55.82 187.757 56 189.137 56C191.837 56 194.057 55.4 195.797 54.2C197.597 52.94 199.007 51.38 200.027 49.52L209.837 54.38ZM199.127 37.28C199.067 36.5 198.797 35.63 198.317 34.67C197.897 33.71 197.237 32.81 196.337 31.97C195.497 31.13 194.417 30.44 193.097 29.9C191.837 29.36 190.307 29.09 188.507 29.09C185.987 29.09 183.767 29.81 181.847 31.25C179.927 32.69 178.577 34.7 177.797 37.28H199.127ZM221.629 30.98H213.889V20.9H221.629V7.4H233.419V20.9H244.219V30.98H233.419V48.08C233.419 49.1 233.509 50.06 233.689 50.96C233.929 51.8 234.349 52.52 234.949 53.12C235.789 54.08 236.989 54.56 238.549 54.56C239.569 54.56 240.379 54.47 240.979 54.29C241.579 54.05 242.149 53.75 242.689 53.39L246.019 63.74C244.639 64.4 243.139 64.88 241.519 65.18C239.959 65.54 238.219 65.72 236.299 65.72C234.079 65.72 232.069 65.39 230.269 64.73C228.529 64.01 227.059 63.05 225.859 61.85C223.039 59.15 221.629 55.31 221.629 50.33V30.98Z" fill="#9D9D9D"/>
<path d="M254.332 0.559998H279.532C282.292 0.559998 284.872 1.01 287.272 1.91C289.672 2.75 291.742 3.95 293.482 5.51C295.282 7.01 296.692 8.78 297.712 10.82C298.732 12.86 299.242 15.05 299.242 17.39C299.242 20.81 298.402 23.69 296.722 26.03C295.102 28.31 293.062 30.05 290.602 31.25V31.97C293.902 33.17 296.542 35.06 298.522 37.64C300.562 40.16 301.582 43.31 301.582 47.09C301.582 49.85 301.012 52.34 299.872 54.56C298.792 56.72 297.292 58.58 295.372 60.14C293.452 61.7 291.202 62.9 288.622 63.74C286.102 64.58 283.372 65 280.432 65H254.332V0.559998ZM278.632 26.84C281.452 26.84 283.612 26.09 285.112 24.59C286.672 23.03 287.452 21.2 287.452 19.1C287.452 17 286.702 15.2 285.202 13.7C283.702 12.2 281.632 11.45 278.992 11.45H266.482V26.84H278.632ZM279.982 53.84C283.042 53.84 285.382 53.09 287.002 51.59C288.622 50.03 289.432 48.05 289.432 45.65C289.432 43.25 288.592 41.27 286.912 39.71C285.292 38.09 282.862 37.28 279.622 37.28H266.482V53.84H279.982ZM330.373 19.46C333.793 19.46 336.913 20.06 339.733 21.26C342.613 22.4 345.073 24.02 347.113 26.12C349.213 28.16 350.833 30.62 351.973 33.5C353.173 36.38 353.773 39.53 353.773 42.95C353.773 46.37 353.173 49.52 351.973 52.4C350.833 55.28 349.213 57.77 347.113 59.87C345.073 61.91 342.613 63.53 339.733 64.73C336.913 65.87 333.793 66.44 330.373 66.44C326.953 66.44 323.803 65.87 320.923 64.73C318.103 63.53 315.643 61.91 313.543 59.87C311.503 57.77 309.883 55.28 308.683 52.4C307.543 49.52 306.973 46.37 306.973 42.95C306.973 39.53 307.543 36.38 308.683 33.5C309.883 30.62 311.503 28.16 313.543 26.12C315.643 24.02 318.103 22.4 320.923 21.26C323.803 20.06 326.953 19.46 330.373 19.46ZM330.373 55.55C331.873 55.55 333.313 55.28 334.693 54.74C336.133 54.14 337.393 53.3 338.473 52.22C339.553 51.14 340.393 49.82 340.993 48.26C341.653 46.7 341.983 44.93 341.983 42.95C341.983 40.97 341.653 39.2 340.993 37.64C340.393 36.08 339.553 34.76 338.473 33.68C337.393 32.6 336.133 31.79 334.693 31.25C333.313 30.65 331.873 30.35 330.373 30.35C328.813 30.35 327.343 30.65 325.963 31.25C324.583 31.79 323.353 32.6 322.273 33.68C321.193 34.76 320.323 36.08 319.663 37.64C319.063 39.2 318.763 40.97 318.763 42.95C318.763 44.93 319.063 46.7 319.663 48.26C320.323 49.82 321.193 51.14 322.273 52.22C323.353 53.3 324.583 54.14 325.963 54.74C327.343 55.28 328.813 55.55 330.373 55.55ZM373.451 62.84L354.911 20.9H368.321L379.481 47.63H380.111L390.821 20.9H403.961L376.331 84.44H363.641L373.451 62.84Z" fill="#10DC49"/>
</svg>
